<?xml version="1.0" encoding="UTF-8" standalone="no" ?>
<!DOCTYPE svg PUBLIC "-//W3C//DTD SVG 1.1//EN" "http://www.w3.org/Graphics/SVG/1.1/DTD/svg11.dtd">
<svg xmlns="http://www.w3.org/2000/svg" xmlns:xlink="http://www.w3.org/1999/xlink" version="1.1" viewBox="0 0 1080 1080" xml:space="preserve">
<desc>Created with Fabric.js 5.2.4</desc>
<defs>
</defs>
<g transform="matrix(1 0 0 1 540 540)" id="e167de2f-c008-4a54-8873-d8f3d3814de0"  >
<rect style="stroke: none; stroke-width: 1; stroke-dasharray: none; stroke-linecap: butt; stroke-dashoffset: 0; stroke-linejoin: miter; stroke-miterlimit: 4; fill: rgb(255,255,255); fill-rule: nonzero; opacity: 1; visibility: hidden;" vector-effect="non-scaling-stroke"  x="-540" y="-540" rx="0" ry="0"   />
</g>
<g transform="matrix(1 0 0 1 540 540)" id="ab39a4c4-c56a-40a9-9566-92eba06cc4ee"  >
</g>
<g transform="matrix(4.41 0 0 4.41 540 540)"  >
<g style=""   >
		<g transform="matrix(1.39 0 0 1.39 41.1 13.85)" id="SvgjsG1057"  >
<line style="stroke: rgb(17,17,17); stroke-width: 2; stroke-dasharray: none; stroke-linecap: butt; stroke-dashoffset: 0; stroke-linejoin: miter; stroke-miterlimit: 10; fill: none; fill-rule: nonzero; opacity: 1; visibility: hidden;" vector-effect="non-scaling-stroke"  x1="6.972500000000004" y1="21.471" x2="-6.972500000000004" y2="-21.471" />
</g>
		<g transform="matrix(1.39 0 0 1.39 47.93 15.02)" id="SvgjsG1057"  >
<line style="stroke: rgb(17,17,17); stroke-width: 2; stroke-dasharray: none; stroke-linecap: butt; stroke-dashoffset: 0; stroke-linejoin: miter; stroke-miterlimit: 10; fill: none; fill-rule: nonzero; opacity: 1; visibility: hidden;" vector-effect="non-scaling-stroke"  x1="6.6965" y1="20.618999999999996" x2="-6.6965" y2="-20.618999999999996" />
</g>
		<g transform="matrix(1.39 0 0 1.39 53.76 13.14)" id="SvgjsG1057"  >
<line style="stroke: rgb(17,17,17); stroke-width: 2; stroke-dasharray: none; stroke-linecap: butt; stroke-dashoffset: 0; stroke-linejoin: miter; stroke-miterlimit: 10; fill: none; fill-rule: nonzero; opacity: 1; visibility: hidden;" vector-effect="non-scaling-stroke"  x1="5.707000000000001" y1="17.5735" x2="-5.707000000000001" y2="-17.5735" />
</g>
		<g transform="matrix(1.39 0 0 1.39 59.59 11.24)" id="SvgjsG1057"  >
<line style="stroke: rgb(17,17,17); stroke-width: 2; stroke-dasharray: none; stroke-linecap: butt; stroke-dashoffset: 0; stroke-linejoin: miter; stroke-miterlimit: 10; fill: none; fill-rule: nonzero; opacity: 1; visibility: hidden;" vector-effect="non-scaling-stroke"  x1="4.716999999999999" y1="14.523999999999997" x2="-4.716999999999999" y2="-14.523999999999997" />
</g>
		<g transform="matrix(1.39 0 0 1.39 65.33 9.07)" id="SvgjsG1057"  >
<line style="stroke: rgb(17,17,17); stroke-width: 2; stroke-dasharray: none; stroke-linecap: butt; stroke-dashoffset: 0; stroke-linejoin: miter; stroke-miterlimit: 10; fill: none; fill-rule: nonzero; opacity: 1; visibility: hidden;" vector-effect="non-scaling-stroke"  x1="3.7905000000000015" y1="11.673000000000002" x2="-3.7905000000000015" y2="-11.673000000000002" />
</g>
		<g transform="matrix(1.39 0 0 1.39 56.78 -34.38)" id="SvgjsG1057"  >
<line style="stroke: rgb(17,17,17); stroke-width: 2; stroke-dasharray: none; stroke-linecap: butt; stroke-dashoffset: 0; stroke-linejoin: miter; stroke-miterlimit: 10; fill: none; fill-rule: nonzero; opacity: 1; visibility: hidden;" vector-effect="non-scaling-stroke"  x1="-18.258000000000003" y1="13.262" x2="18.258000000000003" y2="-13.262" />
</g>
		<g transform="matrix(1.39 0 0 1.39 57.78 -27.52)" id="SvgjsG1057"  >
<line style="stroke: rgb(17,17,17); stroke-width: 2; stroke-dasharray: none; stroke-linecap: butt; stroke-dashoffset: 0; stroke-linejoin: miter; stroke-miterlimit: 10; fill: none; fill-rule: nonzero; opacity: 1; visibility: hidden;" vector-effect="non-scaling-stroke"  x1="-17.5415" y1="12.742" x2="17.5415" y2="-12.742" />
</g>
		<g transform="matrix(1.39 0 0 1.39 61.38 -22.57)" id="SvgjsG1057"  >
<line style="stroke: rgb(17,17,17); stroke-width: 2; stroke-dasharray: none; stroke-linecap: butt; stroke-dashoffset: 0; stroke-linejoin: miter; stroke-miterlimit: 10; fill: none; fill-rule: nonzero; opacity: 1; visibility: hidden;" vector-effect="non-scaling-stroke"  x1="-14.947499999999998" y1="10.857499999999998" x2="14.947499999999998" y2="-10.857499999999998" />
</g>
		<g transform="matrix(1.39 0 0 1.39 64.98 -17.61)" id="SvgjsG1057"  >
<line style="stroke: rgb(17,17,17); stroke-width: 2; stroke-dasharray: none; stroke-linecap: butt; stroke-dashoffset: 0; stroke-linejoin: miter; stroke-miterlimit: 10; fill: none; fill-rule: nonzero; opacity: 1; visibility: hidden;" vector-effect="non-scaling-stroke"  x1="-12.354499999999994" y1="8.974" x2="12.354499999999994" y2="-8.974" />
</g>
		<g transform="matrix(1.39 0 0 1.39 68.82 -12.82)" id="SvgjsG1057"  >
<line style="stroke: rgb(17,17,17); stroke-width: 2; stroke-dasharray: none; stroke-linecap: butt; stroke-dashoffset: 0; stroke-linejoin: miter; stroke-miterlimit: 10; fill: none; fill-rule: nonzero; opacity: 1; visibility: hidden;" vector-effect="non-scaling-stroke"  x1="-9.9285" y1="7.212" x2="9.9285" y2="-7.212" />
</g>
		<g transform="matrix(1.39 0 0 1.39 72.22 -7.72)" id="SvgjsG1057"  >
<line style="stroke: rgb(17,17,17); stroke-width: 2; stroke-dasharray: none; stroke-linecap: butt; stroke-dashoffset: 0; stroke-linejoin: miter; stroke-miterlimit: 10; fill: none; fill-rule: nonzero; opacity: 1; visibility: hidden;" vector-effect="non-scaling-stroke"  x1="-7.194000000000003" y1="5.2255" x2="7.194000000000003" y2="-5.2255" />
</g>
		<g transform="matrix(1.39 0 0 1.39 82.13 43.67)" id="SvgjsG1057"  >
<line style="stroke: rgb(17,17,17); stroke-width: 2; stroke-dasharray: none; stroke-linecap: butt; stroke-dashoffset: 0; stroke-linejoin: miter; stroke-miterlimit: 10; fill: none; fill-rule: nonzero; opacity: 1; visibility: hidden;" vector-effect="non-scaling-stroke"  x1="22.569500000000005" y1="0" x2="-22.569500000000005" y2="0" />
</g>
		<g transform="matrix(1.39 0 0 1.39 85.35 37.54)" id="SvgjsG1057"  >
<line style="stroke: rgb(17,17,17); stroke-width: 2; stroke-dasharray: none; stroke-linecap: butt; stroke-dashoffset: 0; stroke-linejoin: miter; stroke-miterlimit: 10; fill: none; fill-rule: nonzero; opacity: 1; visibility: hidden;" vector-effect="non-scaling-stroke"  x1="21.683" y1="0" x2="-21.683" y2="0" />
</g>
		<g transform="matrix(1.39 0 0 1.39 85.35 31.41)" id="SvgjsG1057"  >
<line style="stroke: rgb(17,17,17); stroke-width: 2; stroke-dasharray: none; stroke-linecap: butt; stroke-dashoffset: 0; stroke-linejoin: miter; stroke-miterlimit: 10; fill: none; fill-rule: nonzero; opacity: 1; visibility: hidden;" vector-effect="non-scaling-stroke"  x1="18.47650000000001" y1="0" x2="-18.47650000000001" y2="0" />
</g>
		<g transform="matrix(1.39 0 0 1.39 84.83 25.28)" id="SvgjsG1057"  >
<line style="stroke: rgb(17,17,17); stroke-width: 2; stroke-dasharray: none; stroke-linecap: butt; stroke-dashoffset: 0; stroke-linejoin: miter; stroke-miterlimit: 10; fill: none; fill-rule: nonzero; opacity: 1; visibility: hidden;" vector-effect="non-scaling-stroke"  x1="15.650999999999996" y1="0" x2="-15.650999999999996" y2="0" />
</g>
		<g transform="matrix(1.39 0 0 1.39 -83.85 17.58)" id="SvgjsG1057"  >
<line style="stroke: rgb(17,17,17); stroke-width: 2; stroke-dasharray: none; stroke-linecap: butt; stroke-dashoffset: 0; stroke-linejoin: miter; stroke-miterlimit: 10; fill: none; fill-rule: nonzero; opacity: 1; visibility: hidden;" vector-effect="non-scaling-stroke"  x1="8.3995" y1="25.8635" x2="-8.3995" y2="-25.8635" />
</g>
		<g transform="matrix(1.39 0 0 1.39 -78.05 15.59)" id="SvgjsG1057"  >
<line style="stroke: rgb(17,17,17); stroke-width: 2; stroke-dasharray: none; stroke-linecap: butt; stroke-dashoffset: 0; stroke-linejoin: miter; stroke-miterlimit: 10; fill: none; fill-rule: nonzero; opacity: 1; visibility: hidden;" vector-effect="non-scaling-stroke"  x1="7.279" y1="22.415499999999998" x2="-7.279" y2="-22.415499999999998" />
</g>
		<g transform="matrix(1.39 0 0 1.39 -72.25 13.6)" id="SvgjsG1057"  >
<line style="stroke: rgb(17,17,17); stroke-width: 2; stroke-dasharray: none; stroke-linecap: butt; stroke-dashoffset: 0; stroke-linejoin: miter; stroke-miterlimit: 10; fill: none; fill-rule: nonzero; opacity: 1; visibility: hidden;" vector-effect="non-scaling-stroke"  x1="6.16" y1="18.966999999999995" x2="-6.16" y2="-18.966999999999995" />
</g>
		<g transform="matrix(1.39 0 0 1.39 -66.45 11.61)" id="SvgjsG1057"  >
<line style="stroke: rgb(17,17,17); stroke-width: 2; stroke-dasharray: none; stroke-linecap: butt; stroke-dashoffset: 0; stroke-linejoin: miter; stroke-miterlimit: 10; fill: none; fill-rule: nonzero; opacity: 1; visibility: hidden;" vector-effect="non-scaling-stroke"  x1="5.039499999999999" y1="15.518" x2="-5.039499999999999" y2="-15.518" />
</g>
		<g transform="matrix(1.39 0 0 1.39 -60.65 9.62)" id="SvgjsG1057"  >
<line style="stroke: rgb(17,17,17); stroke-width: 2; stroke-dasharray: none; stroke-linecap: butt; stroke-dashoffset: 0; stroke-linejoin: miter; stroke-miterlimit: 10; fill: none; fill-rule: nonzero; opacity: 1; visibility: hidden;" vector-effect="non-scaling-stroke"  x1="3.92" y1="12.071000000000005" x2="-3.92" y2="-12.071000000000005" />
</g>
		<g transform="matrix(1.39 0 0 1.39 -54.86 7.63)" id="SvgjsG1057"  >
<line style="stroke: rgb(17,17,17); stroke-width: 2; stroke-dasharray: none; stroke-linecap: butt; stroke-dashoffset: 0; stroke-linejoin: miter; stroke-miterlimit: 10; fill: none; fill-rule: nonzero; opacity: 1; visibility: hidden;" vector-effect="non-scaling-stroke"  x1="2.8000000000000007" y1="8.621000000000002" x2="-2.8000000000000007" y2="-8.621000000000002" />
</g>
		<g transform="matrix(1.39 0 0 1.39 -49.06 5.64)" id="SvgjsG1057"  >
<line style="stroke: rgb(17,17,17); stroke-width: 2; stroke-dasharray: none; stroke-linecap: butt; stroke-dashoffset: 0; stroke-linejoin: miter; stroke-miterlimit: 10; fill: none; fill-rule: nonzero; opacity: 1; visibility: hidden;" vector-effect="non-scaling-stroke"  x1="1.6799999999999997" y1="5.173000000000002" x2="-1.6799999999999997" y2="-5.173000000000002" />
</g>
		<g transform="matrix(1.39 0 0 1.39 -72.55 -32.07)" id="SvgjsG1057"  >
<line style="stroke: rgb(17,17,17); stroke-width: 2; stroke-dasharray: none; stroke-linecap: butt; stroke-dashoffset: 0; stroke-linejoin: miter; stroke-miterlimit: 10; fill: none; fill-rule: nonzero; opacity: 1; visibility: hidden;" vector-effect="non-scaling-stroke"  x1="-22.0015" y1="15.9815" x2="22.0015" y2="-15.9815" />
</g>
		<g transform="matrix(1.39 0 0 1.39 -68.87 -27.17)" id="SvgjsG1057"  >
<line style="stroke: rgb(17,17,17); stroke-width: 2; stroke-dasharray: none; stroke-linecap: butt; stroke-dashoffset: 0; stroke-linejoin: miter; stroke-miterlimit: 10; fill: none; fill-rule: nonzero; opacity: 1; visibility: hidden;" vector-effect="non-scaling-stroke"  x1="-19.068" y1="13.850499999999998" x2="19.068" y2="-13.850499999999998" />
</g>
		<g transform="matrix(1.39 0 0 1.39 -65.18 -22.28)" id="SvgjsG1057"  >
<line style="stroke: rgb(17,17,17); stroke-width: 2; stroke-dasharray: none; stroke-linecap: butt; stroke-dashoffset: 0; stroke-linejoin: miter; stroke-miterlimit: 10; fill: none; fill-rule: nonzero; opacity: 1; visibility: hidden;" vector-effect="non-scaling-stroke"  x1="-16.134999999999998" y1="11.719999999999999" x2="16.134999999999998" y2="-11.719999999999999" />
</g>
		<g transform="matrix(1.39 0 0 1.39 -61.5 -17.38)" id="SvgjsG1057"  >
<line style="stroke: rgb(17,17,17); stroke-width: 2; stroke-dasharray: none; stroke-linecap: butt; stroke-dashoffset: 0; stroke-linejoin: miter; stroke-miterlimit: 10; fill: none; fill-rule: nonzero; opacity: 1; visibility: hidden;" vector-effect="non-scaling-stroke"  x1="-13.201" y1="9.588999999999999" x2="13.201" y2="-9.588999999999999" />
</g>
		<g transform="matrix(1.39 0 0 1.39 -57.81 -12.48)" id="SvgjsG1057"  >
<line style="stroke: rgb(17,17,17); stroke-width: 2; stroke-dasharray: none; stroke-linecap: butt; stroke-dashoffset: 0; stroke-linejoin: miter; stroke-miterlimit: 10; fill: none; fill-rule: nonzero; opacity: 1; visibility: hidden;" vector-effect="non-scaling-stroke"  x1="-10.267999999999999" y1="7.458500000000001" x2="10.267999999999999" y2="-7.458500000000001" />
</g>
		<g transform="matrix(1.39 0 0 1.39 -54.13 -7.58)" id="SvgjsG1057"  >
<line style="stroke: rgb(17,17,17); stroke-width: 2; stroke-dasharray: none; stroke-linecap: butt; stroke-dashoffset: 0; stroke-linejoin: miter; stroke-miterlimit: 10; fill: none; fill-rule: nonzero; opacity: 1; visibility: hidden;" vector-effect="non-scaling-stroke"  x1="-7.333499999999999" y1="5.326999999999998" x2="7.333499999999999" y2="-5.326999999999998" />
</g>
		<g transform="matrix(1.39 0 0 1.39 -50.45 -2.68)" id="SvgjsG1057"  >
<line style="stroke: rgb(17,17,17); stroke-width: 2; stroke-dasharray: none; stroke-linecap: butt; stroke-dashoffset: 0; stroke-linejoin: miter; stroke-miterlimit: 10; fill: none; fill-rule: nonzero; opacity: 1; visibility: hidden;" vector-effect="non-scaling-stroke"  x1="-4.4005" y1="3.195999999999998" x2="4.4005" y2="-3.195999999999998" />
</g>
		<g transform="matrix(1.39 0 0 1.39 -21.84 -36.68)" id="SvgjsG1057"  >
<line style="stroke: rgb(17,17,17); stroke-width: 2; stroke-dasharray: none; stroke-linecap: butt; stroke-dashoffset: 0; stroke-linejoin: miter; stroke-miterlimit: 10; fill: none; fill-rule: nonzero; opacity: 1; visibility: hidden;" vector-effect="non-scaling-stroke"  x1="-21.9985" y1="-15.9855" x2="21.9985" y2="15.9855" />
</g>
		<g transform="matrix(1.39 0 0 1.39 -25.36 -31.66)" id="SvgjsG1057"  >
<line style="stroke: rgb(17,17,17); stroke-width: 2; stroke-dasharray: none; stroke-linecap: butt; stroke-dashoffset: 0; stroke-linejoin: miter; stroke-miterlimit: 10; fill: none; fill-rule: nonzero; opacity: 1; visibility: hidden;" vector-effect="non-scaling-stroke"  x1="-19.0655" y1="-13.854000000000001" x2="19.0655" y2="13.854000000000001" />
</g>
		<g transform="matrix(1.39 0 0 1.39 -28.88 -26.64)" id="SvgjsG1057"  >
<line style="stroke: rgb(17,17,17); stroke-width: 2; stroke-dasharray: none; stroke-linecap: butt; stroke-dashoffset: 0; stroke-linejoin: miter; stroke-miterlimit: 10; fill: none; fill-rule: nonzero; opacity: 1; visibility: hidden;" vector-effect="non-scaling-stroke"  x1="-16.1325" y1="-11.723" x2="16.1325" y2="11.723" />
</g>
		<g transform="matrix(1.39 0 0 1.39 -32.4 -21.62)" id="SvgjsG1057"  >
<line style="stroke: rgb(17,17,17); stroke-width: 2; stroke-dasharray: none; stroke-linecap: butt; stroke-dashoffset: 0; stroke-linejoin: miter; stroke-miterlimit: 10; fill: none; fill-rule: nonzero; opacity: 1; visibility: hidden;" vector-effect="non-scaling-stroke"  x1="-13.1995" y1="-9.591000000000001" x2="13.1995" y2="9.591000000000001" />
</g>
		<g transform="matrix(1.39 0 0 1.39 -35.92 -16.61)" id="SvgjsG1057"  >
<line style="stroke: rgb(17,17,17); stroke-width: 2; stroke-dasharray: none; stroke-linecap: butt; stroke-dashoffset: 0; stroke-linejoin: miter; stroke-miterlimit: 10; fill: none; fill-rule: nonzero; opacity: 1; visibility: hidden;" vector-effect="non-scaling-stroke"  x1="-10.266499999999999" y1="-7.4605" x2="10.266499999999999" y2="7.4605" />
</g>
		<g transform="matrix(1.39 0 0 1.39 -39.44 -11.59)" id="SvgjsG1057"  >
<line style="stroke: rgb(17,17,17); stroke-width: 2; stroke-dasharray: none; stroke-linecap: butt; stroke-dashoffset: 0; stroke-linejoin: miter; stroke-miterlimit: 10; fill: none; fill-rule: nonzero; opacity: 1; visibility: hidden;" vector-effect="non-scaling-stroke"  x1="-7.333" y1="-5.327999999999999" x2="7.333" y2="5.327999999999999" />
</g>
		<g transform="matrix(1.39 0 0 1.39 -42.96 -6.57)" id="SvgjsG1057"  >
<line style="stroke: rgb(17,17,17); stroke-width: 2; stroke-dasharray: none; stroke-linecap: butt; stroke-dashoffset: 0; stroke-linejoin: miter; stroke-miterlimit: 10; fill: none; fill-rule: nonzero; opacity: 1; visibility: hidden;" vector-effect="non-scaling-stroke"  x1="-4.4" y1="-3.1975000000000016" x2="4.4" y2="3.1975000000000016" />
</g>
		<g transform="matrix(1.39 0 0 1.39 -1.78 10.13)" id="SvgjsG1057"  >
<line style="stroke: rgb(17,17,17); stroke-width: 2; stroke-dasharray: none; stroke-linecap: butt; stroke-dashoffset: 0; stroke-linejoin: miter; stroke-miterlimit: 10; fill: none; fill-rule: nonzero; opacity: 1; visibility: hidden;" vector-effect="non-scaling-stroke"  x1="8.404499999999999" y1="-25.862499999999997" x2="-8.404499999999999" y2="25.862499999999997" />
</g>
		<g transform="matrix(1.39 0 0 1.39 -7.64 8.33)" id="SvgjsG1057"  >
<line style="stroke: rgb(17,17,17); stroke-width: 2; stroke-dasharray: none; stroke-linecap: butt; stroke-dashoffset: 0; stroke-linejoin: miter; stroke-miterlimit: 10; fill: none; fill-rule: nonzero; opacity: 1; visibility: hidden;" vector-effect="non-scaling-stroke"  x1="7.2834999999999965" y1="-22.414" x2="-7.2834999999999965" y2="22.414" />
</g>
		<g transform="matrix(1.39 0 0 1.39 -13.5 6.54)" id="SvgjsG1057"  >
<line style="stroke: rgb(17,17,17); stroke-width: 2; stroke-dasharray: none; stroke-linecap: butt; stroke-dashoffset: 0; stroke-linejoin: miter; stroke-miterlimit: 10; fill: none; fill-rule: nonzero; opacity: 1; visibility: hidden;" vector-effect="non-scaling-stroke"  x1="6.163" y1="-18.966" x2="-6.163" y2="18.966" />
</g>
		<g transform="matrix(1.39 0 0 1.39 -19.37 4.74)" id="SvgjsG1057"  >
<line style="stroke: rgb(17,17,17); stroke-width: 2; stroke-dasharray: none; stroke-linecap: butt; stroke-dashoffset: 0; stroke-linejoin: miter; stroke-miterlimit: 10; fill: none; fill-rule: nonzero; opacity: 1; visibility: hidden;" vector-effect="non-scaling-stroke"  x1="5.041999999999998" y1="-15.517500000000002" x2="-5.041999999999998" y2="15.517500000000002" />
</g>
		<g transform="matrix(1.39 0 0 1.39 -25.22 2.94)" id="SvgjsG1057"  >
<line style="stroke: rgb(17,17,17); stroke-width: 2; stroke-dasharray: none; stroke-linecap: butt; stroke-dashoffset: 0; stroke-linejoin: miter; stroke-miterlimit: 10; fill: none; fill-rule: nonzero; opacity: 1; visibility: hidden;" vector-effect="non-scaling-stroke"  x1="3.9224999999999994" y1="-12.069500000000001" x2="-3.9224999999999994" y2="12.069500000000001" />
</g>
		<g transform="matrix(1.39 0 0 1.39 -31.09 1.14)" id="SvgjsG1057"  >
<line style="stroke: rgb(17,17,17); stroke-width: 2; stroke-dasharray: none; stroke-linecap: butt; stroke-dashoffset: 0; stroke-linejoin: miter; stroke-miterlimit: 10; fill: none; fill-rule: nonzero; opacity: 1; visibility: hidden;" vector-effect="non-scaling-stroke"  x1="2.801499999999999" y1="-8.621000000000002" x2="-2.801499999999999" y2="8.621000000000002" />
</g>
		<g transform="matrix(1.39 0 0 1.39 -36.95 -0.65)" id="SvgjsG1057"  >
<line style="stroke: rgb(17,17,17); stroke-width: 2; stroke-dasharray: none; stroke-linecap: butt; stroke-dashoffset: 0; stroke-linejoin: miter; stroke-miterlimit: 10; fill: none; fill-rule: nonzero; opacity: 1; visibility: hidden;" vector-effect="non-scaling-stroke"  x1="1.681000000000001" y1="-5.173000000000002" x2="-1.681000000000001" y2="5.173000000000002" />
</g>
		<g transform="matrix(1.39 0 0 1.39 -40.1 43.67)" id="SvgjsG1057"  >
<line style="stroke: rgb(17,17,17); stroke-width: 2; stroke-dasharray: none; stroke-linecap: butt; stroke-dashoffset: 0; stroke-linejoin: miter; stroke-miterlimit: 10; fill: none; fill-rule: nonzero; opacity: 1; visibility: hidden;" vector-effect="non-scaling-stroke"  x1="27.1935" y1="0" x2="-27.1935" y2="0" />
</g>
		<g transform="matrix(1.39 0 0 1.39 -40.21 37.54)" id="SvgjsG1057"  >
<line style="stroke: rgb(17,17,17); stroke-width: 2; stroke-dasharray: none; stroke-linecap: butt; stroke-dashoffset: 0; stroke-linejoin: miter; stroke-miterlimit: 10; fill: none; fill-rule: nonzero; opacity: 1; visibility: hidden;" vector-effect="non-scaling-stroke"  x1="23.568" y1="0" x2="-23.568" y2="0" />
</g>
		<g transform="matrix(1.39 0 0 1.39 -40.31 31.41)" id="SvgjsG1057"  >
<line style="stroke: rgb(17,17,17); stroke-width: 2; stroke-dasharray: none; stroke-linecap: butt; stroke-dashoffset: 0; stroke-linejoin: miter; stroke-miterlimit: 10; fill: none; fill-rule: nonzero; opacity: 1; visibility: hidden;" vector-effect="non-scaling-stroke"  x1="19.942" y1="0" x2="-19.942" y2="0" />
</g>
		<g transform="matrix(1.39 0 0 1.39 -40.41 25.28)" id="SvgjsG1057"  >
<line style="stroke: rgb(17,17,17); stroke-width: 2; stroke-dasharray: none; stroke-linecap: butt; stroke-dashoffset: 0; stroke-linejoin: miter; stroke-miterlimit: 10; fill: none; fill-rule: nonzero; opacity: 1; visibility: hidden;" vector-effect="non-scaling-stroke"  x1="16.316499999999998" y1="0" x2="-16.316499999999998" y2="0" />
</g>
		<g transform="matrix(1.39 0 0 1.39 -40.51 19.15)" id="SvgjsG1057"  >
<line style="stroke: rgb(17,17,17); stroke-width: 2; stroke-dasharray: none; stroke-linecap: butt; stroke-dashoffset: 0; stroke-linejoin: miter; stroke-miterlimit: 10; fill: none; fill-rule: nonzero; opacity: 1; visibility: hidden;" vector-effect="non-scaling-stroke"  x1="12.690999999999999" y1="0" x2="-12.690999999999999" y2="0" />
</g>
		<g transform="matrix(1.39 0 0 1.39 -40.61 13.02)" id="SvgjsG1057"  >
<line style="stroke: rgb(17,17,17); stroke-width: 2; stroke-dasharray: none; stroke-linecap: butt; stroke-dashoffset: 0; stroke-linejoin: miter; stroke-miterlimit: 10; fill: none; fill-rule: nonzero; opacity: 1; visibility: hidden;" vector-effect="non-scaling-stroke"  x1="9.0645" y1="0" x2="-9.0645" y2="0" />
</g>
		<g transform="matrix(1.39 0 0 1.39 -40.71 6.89)" id="SvgjsG1057"  >
<line style="stroke: rgb(17,17,17); stroke-width: 2; stroke-dasharray: none; stroke-linecap: butt; stroke-dashoffset: 0; stroke-linejoin: miter; stroke-miterlimit: 10; fill: none; fill-rule: nonzero; opacity: 1; visibility: hidden;" vector-effect="non-scaling-stroke"  x1="5.439" y1="0" x2="-5.439" y2="0" />
</g>
		<g transform="matrix(1.39 0 0 1.39 -4 -11.71)" id="SvgjsG1057"  >
<path style="stroke: none; stroke-width: 1; stroke-dasharray: none; stroke-linecap: butt; stroke-dashoffset: 0; stroke-linejoin: miter; stroke-miterlimit: 4; fill: rgb(17,17,17); fill-rule: nonzero; opacity: 1;" vector-effect="non-scaling-stroke"  transform=" translate(-50, -50)" d="M 95 48.905 L 92.885 47.684 L 83.742 63.52 L 80.07600000000001 63.52 L 91.59500000000001 43.57300000000001 L 89.48000000000002 42.352000000000004 L 77.269 63.52 L 73.592 63.52 L 88.188 38.24 L 86.075 37.019000000000005 L 70.824 63.519000000000005 L 67.108 63.519000000000005 L 84.78200000000001 32.90700000000001 L 82.66700000000002 31.68600000000001 L 64.288 63.52 L 60.623999999999995 63.521 L 81.377 27.576 L 71.55099999999999 10.482 L 69.43599999999999 11.703 L 78.579 27.54 L 76.747 30.712 L 65.229 10.765 L 63.116 11.986 L 75.339 33.150000000000006 L 73.504 36.328 L 58.909 11.048 L 56.795 12.269 L 72.119 38.727 L 70.262 41.943999999999996 L 52.589 11.331 L 50.474 12.552 L 68.851 44.385999999999996 L 67.02 47.559 L 46.268 11.614 L 26.552 11.578000000000001 L 26.552 14.019000000000002 L 44.837 14.019000000000002 L 46.67 17.193 L 23.636 17.193 L 23.636 19.633000000000003 L 48.077 19.633000000000003 L 49.91 22.808000000000003 L 20.721 22.808000000000003 L 20.721 25.249000000000002 L 51.298 25.249000000000002 L 51.298 25.21 L 53.153 28.424 L 17.806 28.424 L 17.806 30.865 L 54.562 30.865 L 56.394 34.038 L 14.891 34.038 L 5 51.095 L 7.115 52.316 L 16.256999999999998 36.481 L 19.923 36.481 L 8.405 56.428 L 10.52 57.649 L 22.75 36.48 L 26.409 36.48 L 11.812 61.76 L 13.924999999999999 62.980999999999995 L 29.214999999999996 36.501999999999995 L 29.177999999999997 36.480999999999995 L 32.891999999999996 36.480999999999995 L 15.218 67.093 L 17.333 68.31400000000001 L 35.711 36.48 L 39.376 36.48 L 18.624 72.425 L 28.45 89.519 L 30.563 88.298 L 21.42 72.464 L 23.253 69.28999999999999 L 34.769 89.23499999999999 L 36.884 88.01399999999998 L 24.666 66.842 L 26.496000000000002 63.673 L 41.089 88.952 L 43.204 87.731 L 27.918 61.252 L 29.738 58.058 L 47.411 88.669 L 49.526 87.448 L 31.148 55.615 L 32.98 52.443000000000005 L 53.732 88.385 L 53.743 88.379 L 53.732 88.42200000000001 L 73.44800000000001 88.42200000000001 L 73.44800000000001 85.98100000000001 L 55.164 85.98100000000001 L 53.332 82.807 L 76.363 82.807 L 76.363 80.367 L 51.923 80.367 L 50.09 77.191 L 79.279 77.19200000000001 L 79.279 74.751 L 48.702 74.75 L 46.847 71.575 L 82.195 71.575 L 82.195 69.134 L 45.437 69.134 L 43.605 65.962 L 85.109 65.961 L 95 48.905 z M 42.196 63.521 L 34.39 50.001000000000005 L 42.196 36.480000000000004 L 57.805 36.480000000000004 L 65.611 50.001000000000005 L 57.806000000000004 63.521 L 42.196 63.521 z" stroke-linecap="round" />
</g>
		<g transform="matrix(3.33 0 0 3.33 0 80)" id="SvgjsG1058"  >

</g>
</g>
</g>
</svg>