<?xml version="1.0" encoding="UTF-8" standalone="no" ?>
<!DOCTYPE svg PUBLIC "-//W3C//DTD SVG 1.1//EN" "http://www.w3.org/Graphics/SVG/1.1/DTD/svg11.dtd">
<svg xmlns="http://www.w3.org/2000/svg" xmlns:xlink="http://www.w3.org/1999/xlink" version="1.1" width="1080" height="1080" viewBox="0 0 1080 1080" xml:space="preserve">
<desc>Created with Fabric.js 5.2.4</desc>
<defs>
</defs>
<g transform="matrix(1 0 0 1 540 540)" id="e167de2f-c008-4a54-8873-d8f3d3814de0"  >
<rect style="stroke: none; stroke-width: 1; stroke-dasharray: none; stroke-linecap: butt; stroke-dashoffset: 0; stroke-linejoin: miter; stroke-miterlimit: 4; fill: rgb(255,255,255); fill-rule: nonzero; opacity: 1; visibility: hidden;" vector-effect="non-scaling-stroke"  x="-540" y="-540" rx="0" ry="0" width="1080" height="1080" />
</g>
<g transform="matrix(1 0 0 1 540 540)" id="ab39a4c4-c56a-40a9-9566-92eba06cc4ee"  >
</g>
<g transform="matrix(4.41 0 0 4.41 540 540)"  >
<g style=""   >
		<g transform="matrix(1.39 0 0 1.39 41.1 13.85)" id="SvgjsG1057"  >
<line style="stroke: rgb(17,17,17); stroke-width: 2; stroke-dasharray: none; stroke-linecap: butt; stroke-dashoffset: 0; stroke-linejoin: miter; stroke-miterlimit: 10; fill: none; fill-rule: nonzero; opacity: 1; visibility: hidden;" vector-effect="non-scaling-stroke"  x1="6.972500000000004" y1="21.471" x2="-6.972500000000004" y2="-21.471" />
</g>
		<g transform="matrix(1.39 0 0 1.39 47.93 15.02)" id="SvgjsG1057"  >
<line style="stroke: rgb(17,17,17); stroke-width: 2; stroke-dasharray: none; stroke-linecap: butt; stroke-dashoffset: 0; stroke-linejoin: miter; stroke-miterlimit: 10; fill: none; fill-rule: nonzero; opacity: 1; visibility: hidden;" vector-effect="non-scaling-stroke"  x1="6.6965" y1="20.618999999999996" x2="-6.6965" y2="-20.618999999999996" />
</g>
		<g transform="matrix(1.39 0 0 1.39 53.76 13.14)" id="SvgjsG1057"  >
<line style="stroke: rgb(17,17,17); stroke-width: 2; stroke-dasharray: none; stroke-linecap: butt; stroke-dashoffset: 0; stroke-linejoin: miter; stroke-miterlimit: 10; fill: none; fill-rule: nonzero; opacity: 1; visibility: hidden;" vector-effect="non-scaling-stroke"  x1="5.707000000000001" y1="17.5735" x2="-5.707000000000001" y2="-17.5735" />
</g>
		<g transform="matrix(1.39 0 0 1.39 59.59 11.24)" id="SvgjsG1057"  >
<line style="stroke: rgb(17,17,17); stroke-width: 2; stroke-dasharray: none; stroke-linecap: butt; stroke-dashoffset: 0; stroke-linejoin: miter; stroke-miterlimit: 10; fill: none; fill-rule: nonzero; opacity: 1; visibility: hidden;" vector-effect="non-scaling-stroke"  x1="4.716999999999999" y1="14.523999999999997" x2="-4.716999999999999" y2="-14.523999999999997" />
</g>
		<g transform="matrix(1.39 0 0 1.39 65.33 9.07)" id="SvgjsG1057"  >
<line style="stroke: rgb(17,17,17); stroke-width: 2; stroke-dasharray: none; stroke-linecap: butt; stroke-dashoffset: 0; stroke-linejoin: miter; stroke-miterlimit: 10; fill: none; fill-rule: nonzero; opacity: 1; visibility: hidden;" vector-effect="non-scaling-stroke"  x1="3.7905000000000015" y1="11.673000000000002" x2="-3.7905000000000015" y2="-11.673000000000002" />
</g>
		<g transform="matrix(1.39 0 0 1.39 56.78 -34.38)" id="SvgjsG1057"  >
<line style="stroke: rgb(17,17,17); stroke-width: 2; stroke-dasharray: none; stroke-linecap: butt; stroke-dashoffset: 0; stroke-linejoin: miter; stroke-miterlimit: 10; fill: none; fill-rule: nonzero; opacity: 1; visibility: hidden;" vector-effect="non-scaling-stroke"  x1="-18.258000000000003" y1="13.262" x2="18.258000000000003" y2="-13.262" />
</g>
		<g transform="matrix(1.39 0 0 1.39 57.78 -27.52)" id="SvgjsG1057"  >
<line style="stroke: rgb(17,17,17); stroke-width: 2; stroke-dasharray: none; stroke-linecap: butt; stroke-dashoffset: 0; stroke-linejoin: miter; stroke-miterlimit: 10; fill: none; fill-rule: nonzero; opacity: 1; visibility: hidden;" vector-effect="non-scaling-stroke"  x1="-17.5415" y1="12.742" x2="17.5415" y2="-12.742" />
</g>
		<g transform="matrix(1.39 0 0 1.39 61.38 -22.57)" id="SvgjsG1057"  >
<line style="stroke: rgb(17,17,17); stroke-width: 2; stroke-dasharray: none; stroke-linecap: butt; stroke-dashoffset: 0; stroke-linejoin: miter; stroke-miterlimit: 10; fill: none; fill-rule: nonzero; opacity: 1; visibility: hidden;" vector-effect="non-scaling-stroke"  x1="-14.947499999999998" y1="10.857499999999998" x2="14.947499999999998" y2="-10.857499999999998" />
</g>
		<g transform="matrix(1.39 0 0 1.39 64.98 -17.61)" id="SvgjsG1057"  >
<line style="stroke: rgb(17,17,17); stroke-width: 2; stroke-dasharray: none; stroke-linecap: butt; stroke-dashoffset: 0; stroke-linejoin: miter; stroke-miterlimit: 10; fill: none; fill-rule: nonzero; opacity: 1; visibility: hidden;" vector-effect="non-scaling-stroke"  x1="-12.354499999999994" y1="8.974" x2="12.354499999999994" y2="-8.974" />
</g>
		<g transform="matrix(1.39 0 0 1.39 68.82 -12.82)" id="SvgjsG1057"  >
<line style="stroke: rgb(17,17,17); stroke-width: 2; stroke-dasharray: none; stroke-linecap: butt; stroke-dashoffset: 0; stroke-linejoin: miter; stroke-miterlimit: 10; fill: none; fill-rule: nonzero; opacity: 1; visibility: hidden;" vector-effect="non-scaling-stroke"  x1="-9.9285" y1="7.212" x2="9.9285" y2="-7.212" />
</g>
		<g transform="matrix(1.39 0 0 1.39 72.22 -7.72)" id="SvgjsG1057"  >
<line style="stroke: rgb(17,17,17); stroke-width: 2; stroke-dasharray: none; stroke-linecap: butt; stroke-dashoffset: 0; stroke-linejoin: miter; stroke-miterlimit: 10; fill: none; fill-rule: nonzero; opacity: 1; visibility: hidden;" vector-effect="non-scaling-stroke"  x1="-7.194000000000003" y1="5.2255" x2="7.194000000000003" y2="-5.2255" />
</g>
		<g transform="matrix(1.39 0 0 1.39 82.13 43.67)" id="SvgjsG1057"  >
<line style="stroke: rgb(17,17,17); stroke-width: 2; stroke-dasharray: none; stroke-linecap: butt; stroke-dashoffset: 0; stroke-linejoin: miter; stroke-miterlimit: 10; fill: none; fill-rule: nonzero; opacity: 1; visibility: hidden;" vector-effect="non-scaling-stroke"  x1="22.569500000000005" y1="0" x2="-22.569500000000005" y2="0" />
</g>
		<g transform="matrix(1.39 0 0 1.39 85.35 37.54)" id="SvgjsG1057"  >
<line style="stroke: rgb(17,17,17); stroke-width: 2; stroke-dasharray: none; stroke-linecap: butt; stroke-dashoffset: 0; stroke-linejoin: miter; stroke-miterlimit: 10; fill: none; fill-rule: nonzero; opacity: 1; visibility: hidden;" vector-effect="non-scaling-stroke"  x1="21.683" y1="0" x2="-21.683" y2="0" />
</g>
		<g transform="matrix(1.39 0 0 1.39 85.35 31.41)" id="SvgjsG1057"  >
<line style="stroke: rgb(17,17,17); stroke-width: 2; stroke-dasharray: none; stroke-linecap: butt; stroke-dashoffset: 0; stroke-linejoin: miter; stroke-miterlimit: 10; fill: none; fill-rule: nonzero; opacity: 1; visibility: hidden;" vector-effect="non-scaling-stroke"  x1="18.47650000000001" y1="0" x2="-18.47650000000001" y2="0" />
</g>
		<g transform="matrix(1.39 0 0 1.39 84.83 25.28)" id="SvgjsG1057"  >
<line style="stroke: rgb(17,17,17); stroke-width: 2; stroke-dasharray: none; stroke-linecap: butt; stroke-dashoffset: 0; stroke-linejoin: miter; stroke-miterlimit: 10; fill: none; fill-rule: nonzero; opacity: 1; visibility: hidden;" vector-effect="non-scaling-stroke"  x1="15.650999999999996" y1="0" x2="-15.650999999999996" y2="0" />
</g>
		<g transform="matrix(1.39 0 0 1.39 -83.85 17.58)" id="SvgjsG1057"  >
<line style="stroke: rgb(17,17,17); stroke-width: 2; stroke-dasharray: none; stroke-linecap: butt; stroke-dashoffset: 0; stroke-linejoin: miter; stroke-miterlimit: 10; fill: none; fill-rule: nonzero; opacity: 1; visibility: hidden;" vector-effect="non-scaling-stroke"  x1="8.3995" y1="25.8635" x2="-8.3995" y2="-25.8635" />
</g>
		<g transform="matrix(1.39 0 0 1.39 -78.05 15.59)" id="SvgjsG1057"  >
<line style="stroke: rgb(17,17,17); stroke-width: 2; stroke-dasharray: none; stroke-linecap: butt; stroke-dashoffset: 0; stroke-linejoin: miter; stroke-miterlimit: 10; fill: none; fill-rule: nonzero; opacity: 1; visibility: hidden;" vector-effect="non-scaling-stroke"  x1="7.279" y1="22.415499999999998" x2="-7.279" y2="-22.415499999999998" />
</g>
		<g transform="matrix(1.39 0 0 1.39 -72.25 13.6)" id="SvgjsG1057"  >
<line style="stroke: rgb(17,17,17); stroke-width: 2; stroke-dasharray: none; stroke-linecap: butt; stroke-dashoffset: 0; stroke-linejoin: miter; stroke-miterlimit: 10; fill: none; fill-rule: nonzero; opacity: 1; visibility: hidden;" vector-effect="non-scaling-stroke"  x1="6.16" y1="18.966999999999995" x2="-6.16" y2="-18.966999999999995" />
</g>
		<g transform="matrix(1.39 0 0 1.39 -66.45 11.61)" id="SvgjsG1057"  >
<line style="stroke: rgb(17,17,17); stroke-width: 2; stroke-dasharray: none; stroke-linecap: butt; stroke-dashoffset: 0; stroke-linejoin: miter; stroke-miterlimit: 10; fill: none; fill-rule: nonzero; opacity: 1; visibility: hidden;" vector-effect="non-scaling-stroke"  x1="5.039499999999999" y1="15.518" x2="-5.039499999999999" y2="-15.518" />
</g>
		<g transform="matrix(1.39 0 0 1.39 -60.65 9.62)" id="SvgjsG1057"  >
<line style="stroke: rgb(17,17,17); stroke-width: 2; stroke-dasharray: none; stroke-linecap: butt; stroke-dashoffset: 0; stroke-linejoin: miter; stroke-miterlimit: 10; fill: none; fill-rule: nonzero; opacity: 1; visibility: hidden;" vector-effect="non-scaling-stroke"  x1="3.92" y1="12.071000000000005" x2="-3.92" y2="-12.071000000000005" />
</g>
		<g transform="matrix(1.39 0 0 1.39 -54.86 7.63)" id="SvgjsG1057"  >
<line style="stroke: rgb(17,17,17); stroke-width: 2; stroke-dasharray: none; stroke-linecap: butt; stroke-dashoffset: 0; stroke-linejoin: miter; stroke-miterlimit: 10; fill: none; fill-rule: nonzero; opacity: 1; visibility: hidden;" vector-effect="non-scaling-stroke"  x1="2.8000000000000007" y1="8.621000000000002" x2="-2.8000000000000007" y2="-8.621000000000002" />
</g>
		<g transform="matrix(1.39 0 0 1.39 -49.06 5.64)" id="SvgjsG1057"  >
<line style="stroke: rgb(17,17,17); stroke-width: 2; stroke-dasharray: none; stroke-linecap: butt; stroke-dashoffset: 0; stroke-linejoin: miter; stroke-miterlimit: 10; fill: none; fill-rule: nonzero; opacity: 1; visibility: hidden;" vector-effect="non-scaling-stroke"  x1="1.6799999999999997" y1="5.173000000000002" x2="-1.6799999999999997" y2="-5.173000000000002" />
</g>
		<g transform="matrix(1.39 0 0 1.39 -72.55 -32.07)" id="SvgjsG1057"  >
<line style="stroke: rgb(17,17,17); stroke-width: 2; stroke-dasharray: none; stroke-linecap: butt; stroke-dashoffset: 0; stroke-linejoin: miter; stroke-miterlimit: 10; fill: none; fill-rule: nonzero; opacity: 1; visibility: hidden;" vector-effect="non-scaling-stroke"  x1="-22.0015" y1="15.9815" x2="22.0015" y2="-15.9815" />
</g>
		<g transform="matrix(1.39 0 0 1.39 -68.87 -27.17)" id="SvgjsG1057"  >
<line style="stroke: rgb(17,17,17); stroke-width: 2; stroke-dasharray: none; stroke-linecap: butt; stroke-dashoffset: 0; stroke-linejoin: miter; stroke-miterlimit: 10; fill: none; fill-rule: nonzero; opacity: 1; visibility: hidden;" vector-effect="non-scaling-stroke"  x1="-19.068" y1="13.850499999999998" x2="19.068" y2="-13.850499999999998" />
</g>
		<g transform="matrix(1.39 0 0 1.39 -65.18 -22.28)" id="SvgjsG1057"  >
<line style="stroke: rgb(17,17,17); stroke-width: 2; stroke-dasharray: none; stroke-linecap: butt; stroke-dashoffset: 0; stroke-linejoin: miter; stroke-miterlimit: 10; fill: none; fill-rule: nonzero; opacity: 1; visibility: hidden;" vector-effect="non-scaling-stroke"  x1="-16.134999999999998" y1="11.719999999999999" x2="16.134999999999998" y2="-11.719999999999999" />
</g>
		<g transform="matrix(1.39 0 0 1.39 -61.5 -17.38)" id="SvgjsG1057"  >
<line style="stroke: rgb(17,17,17); stroke-width: 2; stroke-dasharray: none; stroke-linecap: butt; stroke-dashoffset: 0; stroke-linejoin: miter; stroke-miterlimit: 10; fill: none; fill-rule: nonzero; opacity: 1; visibility: hidden;" vector-effect="non-scaling-stroke"  x1="-13.201" y1="9.588999999999999" x2="13.201" y2="-9.588999999999999" />
</g>
		<g transform="matrix(1.39 0 0 1.39 -57.81 -12.48)" id="SvgjsG1057"  >
<line style="stroke: rgb(17,17,17); stroke-width: 2; stroke-dasharray: none; stroke-linecap: butt; stroke-dashoffset: 0; stroke-linejoin: miter; stroke-miterlimit: 10; fill: none; fill-rule: nonzero; opacity: 1; visibility: hidden;" vector-effect="non-scaling-stroke"  x1="-10.267999999999999" y1="7.458500000000001" x2="10.267999999999999" y2="-7.458500000000001" />
</g>
		<g transform="matrix(1.39 0 0 1.39 -54.13 -7.58)" id="SvgjsG1057"  >
<line style="stroke: rgb(17,17,17); stroke-width: 2; stroke-dasharray: none; stroke-linecap: butt; stroke-dashoffset: 0; stroke-linejoin: miter; stroke-miterlimit: 10; fill: none; fill-rule: nonzero; opacity: 1; visibility: hidden;" vector-effect="non-scaling-stroke"  x1="-7.333499999999999" y1="5.326999999999998" x2="7.333499999999999" y2="-5.326999999999998" />
</g>
		<g transform="matrix(1.39 0 0 1.39 -50.45 -2.68)" id="SvgjsG1057"  >
<line style="stroke: rgb(17,17,17); stroke-width: 2; stroke-dasharray: none; stroke-linecap: butt; stroke-dashoffset: 0; stroke-linejoin: miter; stroke-miterlimit: 10; fill: none; fill-rule: nonzero; opacity: 1; visibility: hidden;" vector-effect="non-scaling-stroke"  x1="-4.4005" y1="3.195999999999998" x2="4.4005" y2="-3.195999999999998" />
</g>
		<g transform="matrix(1.39 0 0 1.39 -21.84 -36.68)" id="SvgjsG1057"  >
<line style="stroke: rgb(17,17,17); stroke-width: 2; stroke-dasharray: none; stroke-linecap: butt; stroke-dashoffset: 0; stroke-linejoin: miter; stroke-miterlimit: 10; fill: none; fill-rule: nonzero; opacity: 1; visibility: hidden;" vector-effect="non-scaling-stroke"  x1="-21.9985" y1="-15.9855" x2="21.9985" y2="15.9855" />
</g>
		<g transform="matrix(1.39 0 0 1.39 -25.36 -31.66)" id="SvgjsG1057"  >
<line style="stroke: rgb(17,17,17); stroke-width: 2; stroke-dasharray: none; stroke-linecap: butt; stroke-dashoffset: 0; stroke-linejoin: miter; stroke-miterlimit: 10; fill: none; fill-rule: nonzero; opacity: 1; visibility: hidden;" vector-effect="non-scaling-stroke"  x1="-19.0655" y1="-13.854000000000001" x2="19.0655" y2="13.854000000000001" />
</g>
		<g transform="matrix(1.39 0 0 1.39 -28.88 -26.64)" id="SvgjsG1057"  >
<line style="stroke: rgb(17,17,17); stroke-width: 2; stroke-dasharray: none; stroke-linecap: butt; stroke-dashoffset: 0; stroke-linejoin: miter; stroke-miterlimit: 10; fill: none; fill-rule: nonzero; opacity: 1; visibility: hidden;" vector-effect="non-scaling-stroke"  x1="-16.1325" y1="-11.723" x2="16.1325" y2="11.723" />
</g>
		<g transform="matrix(1.39 0 0 1.39 -32.4 -21.62)" id="SvgjsG1057"  >
<line style="stroke: rgb(17,17,17); stroke-width: 2; stroke-dasharray: none; stroke-linecap: butt; stroke-dashoffset: 0; stroke-linejoin: miter; stroke-miterlimit: 10; fill: none; fill-rule: nonzero; opacity: 1; visibility: hidden;" vector-effect="non-scaling-stroke"  x1="-13.1995" y1="-9.591000000000001" x2="13.1995" y2="9.591000000000001" />
</g>
		<g transform="matrix(1.39 0 0 1.39 -35.92 -16.61)" id="SvgjsG1057"  >
<line style="stroke: rgb(17,17,17); stroke-width: 2; stroke-dasharray: none; stroke-linecap: butt; stroke-dashoffset: 0; stroke-linejoin: miter; stroke-miterlimit: 10; fill: none; fill-rule: nonzero; opacity: 1; visibility: hidden;" vector-effect="non-scaling-stroke"  x1="-10.266499999999999" y1="-7.4605" x2="10.266499999999999" y2="7.4605" />
</g>
		<g transform="matrix(1.39 0 0 1.39 -39.44 -11.59)" id="SvgjsG1057"  >
<line style="stroke: rgb(17,17,17); stroke-width: 2; stroke-dasharray: none; stroke-linecap: butt; stroke-dashoffset: 0; stroke-linejoin: miter; stroke-miterlimit: 10; fill: none; fill-rule: nonzero; opacity: 1; visibility: hidden;" vector-effect="non-scaling-stroke"  x1="-7.333" y1="-5.327999999999999" x2="7.333" y2="5.327999999999999" />
</g>
		<g transform="matrix(1.39 0 0 1.39 -42.96 -6.57)" id="SvgjsG1057"  >
<line style="stroke: rgb(17,17,17); stroke-width: 2; stroke-dasharray: none; stroke-linecap: butt; stroke-dashoffset: 0; stroke-linejoin: miter; stroke-miterlimit: 10; fill: none; fill-rule: nonzero; opacity: 1; visibility: hidden;" vector-effect="non-scaling-stroke"  x1="-4.4" y1="-3.1975000000000016" x2="4.4" y2="3.1975000000000016" />
</g>
		<g transform="matrix(1.39 0 0 1.39 -1.78 10.13)" id="SvgjsG1057"  >
<line style="stroke: rgb(17,17,17); stroke-width: 2; stroke-dasharray: none; stroke-linecap: butt; stroke-dashoffset: 0; stroke-linejoin: miter; stroke-miterlimit: 10; fill: none; fill-rule: nonzero; opacity: 1; visibility: hidden;" vector-effect="non-scaling-stroke"  x1="8.404499999999999" y1="-25.862499999999997" x2="-8.404499999999999" y2="25.862499999999997" />
</g>
		<g transform="matrix(1.39 0 0 1.39 -7.64 8.33)" id="SvgjsG1057"  >
<line style="stroke: rgb(17,17,17); stroke-width: 2; stroke-dasharray: none; stroke-linecap: butt; stroke-dashoffset: 0; stroke-linejoin: miter; stroke-miterlimit: 10; fill: none; fill-rule: nonzero; opacity: 1; visibility: hidden;" vector-effect="non-scaling-stroke"  x1="7.2834999999999965" y1="-22.414" x2="-7.2834999999999965" y2="22.414" />
</g>
		<g transform="matrix(1.39 0 0 1.39 -13.5 6.54)" id="SvgjsG1057"  >
<line style="stroke: rgb(17,17,17); stroke-width: 2; stroke-dasharray: none; stroke-linecap: butt; stroke-dashoffset: 0; stroke-linejoin: miter; stroke-miterlimit: 10; fill: none; fill-rule: nonzero; opacity: 1; visibility: hidden;" vector-effect="non-scaling-stroke"  x1="6.163" y1="-18.966" x2="-6.163" y2="18.966" />
</g>
		<g transform="matrix(1.39 0 0 1.39 -19.37 4.74)" id="SvgjsG1057"  >
<line style="stroke: rgb(17,17,17); stroke-width: 2; stroke-dasharray: none; stroke-linecap: butt; stroke-dashoffset: 0; stroke-linejoin: miter; stroke-miterlimit: 10; fill: none; fill-rule: nonzero; opacity: 1; visibility: hidden;" vector-effect="non-scaling-stroke"  x1="5.041999999999998" y1="-15.517500000000002" x2="-5.041999999999998" y2="15.517500000000002" />
</g>
		<g transform="matrix(1.39 0 0 1.39 -25.22 2.94)" id="SvgjsG1057"  >
<line style="stroke: rgb(17,17,17); stroke-width: 2; stroke-dasharray: none; stroke-linecap: butt; stroke-dashoffset: 0; stroke-linejoin: miter; stroke-miterlimit: 10; fill: none; fill-rule: nonzero; opacity: 1; visibility: hidden;" vector-effect="non-scaling-stroke"  x1="3.9224999999999994" y1="-12.069500000000001" x2="-3.9224999999999994" y2="12.069500000000001" />
</g>
		<g transform="matrix(1.39 0 0 1.39 -31.09 1.14)" id="SvgjsG1057"  >
<line style="stroke: rgb(17,17,17); stroke-width: 2; stroke-dasharray: none; stroke-linecap: butt; stroke-dashoffset: 0; stroke-linejoin: miter; stroke-miterlimit: 10; fill: none; fill-rule: nonzero; opacity: 1; visibility: hidden;" vector-effect="non-scaling-stroke"  x1="2.801499999999999" y1="-8.621000000000002" x2="-2.801499999999999" y2="8.621000000000002" />
</g>
		<g transform="matrix(1.39 0 0 1.39 -36.95 -0.65)" id="SvgjsG1057"  >
<line style="stroke: rgb(17,17,17); stroke-width: 2; stroke-dasharray: none; stroke-linecap: butt; stroke-dashoffset: 0; stroke-linejoin: miter; stroke-miterlimit: 10; fill: none; fill-rule: nonzero; opacity: 1; visibility: hidden;" vector-effect="non-scaling-stroke"  x1="1.681000000000001" y1="-5.173000000000002" x2="-1.681000000000001" y2="5.173000000000002" />
</g>
		<g transform="matrix(1.39 0 0 1.39 -40.1 43.67)" id="SvgjsG1057"  >
<line style="stroke: rgb(17,17,17); stroke-width: 2; stroke-dasharray: none; stroke-linecap: butt; stroke-dashoffset: 0; stroke-linejoin: miter; stroke-miterlimit: 10; fill: none; fill-rule: nonzero; opacity: 1; visibility: hidden;" vector-effect="non-scaling-stroke"  x1="27.1935" y1="0" x2="-27.1935" y2="0" />
</g>
		<g transform="matrix(1.39 0 0 1.39 -40.21 37.54)" id="SvgjsG1057"  >
<line style="stroke: rgb(17,17,17); stroke-width: 2; stroke-dasharray: none; stroke-linecap: butt; stroke-dashoffset: 0; stroke-linejoin: miter; stroke-miterlimit: 10; fill: none; fill-rule: nonzero; opacity: 1; visibility: hidden;" vector-effect="non-scaling-stroke"  x1="23.568" y1="0" x2="-23.568" y2="0" />
</g>
		<g transform="matrix(1.39 0 0 1.39 -40.31 31.41)" id="SvgjsG1057"  >
<line style="stroke: rgb(17,17,17); stroke-width: 2; stroke-dasharray: none; stroke-linecap: butt; stroke-dashoffset: 0; stroke-linejoin: miter; stroke-miterlimit: 10; fill: none; fill-rule: nonzero; opacity: 1; visibility: hidden;" vector-effect="non-scaling-stroke"  x1="19.942" y1="0" x2="-19.942" y2="0" />
</g>
		<g transform="matrix(1.39 0 0 1.39 -40.41 25.28)" id="SvgjsG1057"  >
<line style="stroke: rgb(17,17,17); stroke-width: 2; stroke-dasharray: none; stroke-linecap: butt; stroke-dashoffset: 0; stroke-linejoin: miter; stroke-miterlimit: 10; fill: none; fill-rule: nonzero; opacity: 1; visibility: hidden;" vector-effect="non-scaling-stroke"  x1="16.316499999999998" y1="0" x2="-16.316499999999998" y2="0" />
</g>
		<g transform="matrix(1.39 0 0 1.39 -40.51 19.15)" id="SvgjsG1057"  >
<line style="stroke: rgb(17,17,17); stroke-width: 2; stroke-dasharray: none; stroke-linecap: butt; stroke-dashoffset: 0; stroke-linejoin: miter; stroke-miterlimit: 10; fill: none; fill-rule: nonzero; opacity: 1; visibility: hidden;" vector-effect="non-scaling-stroke"  x1="12.690999999999999" y1="0" x2="-12.690999999999999" y2="0" />
</g>
		<g transform="matrix(1.39 0 0 1.39 -40.61 13.02)" id="SvgjsG1057"  >
<line style="stroke: rgb(17,17,17); stroke-width: 2; stroke-dasharray: none; stroke-linecap: butt; stroke-dashoffset: 0; stroke-linejoin: miter; stroke-miterlimit: 10; fill: none; fill-rule: nonzero; opacity: 1; visibility: hidden;" vector-effect="non-scaling-stroke"  x1="9.0645" y1="0" x2="-9.0645" y2="0" />
</g>
		<g transform="matrix(1.39 0 0 1.39 -40.71 6.89)" id="SvgjsG1057"  >
<line style="stroke: rgb(17,17,17); stroke-width: 2; stroke-dasharray: none; stroke-linecap: butt; stroke-dashoffset: 0; stroke-linejoin: miter; stroke-miterlimit: 10; fill: none; fill-rule: nonzero; opacity: 1; visibility: hidden;" vector-effect="non-scaling-stroke"  x1="5.439" y1="0" x2="-5.439" y2="0" />
</g>
		<g transform="matrix(1.39 0 0 1.39 -4 -11.71)" id="SvgjsG1057"  >
<path style="stroke: none; stroke-width: 1; stroke-dasharray: none; stroke-linecap: butt; stroke-dashoffset: 0; stroke-linejoin: miter; stroke-miterlimit: 4; fill: rgb(17,17,17); fill-rule: nonzero; opacity: 1;" vector-effect="non-scaling-stroke"  transform=" translate(-50, -50)" d="M 95 48.905 L 92.885 47.684 L 83.742 63.52 L 80.07600000000001 63.52 L 91.59500000000001 43.57300000000001 L 89.48000000000002 42.352000000000004 L 77.269 63.52 L 73.592 63.52 L 88.188 38.24 L 86.075 37.019000000000005 L 70.824 63.519000000000005 L 67.108 63.519000000000005 L 84.78200000000001 32.90700000000001 L 82.66700000000002 31.68600000000001 L 64.288 63.52 L 60.623999999999995 63.521 L 81.377 27.576 L 71.55099999999999 10.482 L 69.43599999999999 11.703 L 78.579 27.54 L 76.747 30.712 L 65.229 10.765 L 63.116 11.986 L 75.339 33.150000000000006 L 73.504 36.328 L 58.909 11.048 L 56.795 12.269 L 72.119 38.727 L 70.262 41.943999999999996 L 52.589 11.331 L 50.474 12.552 L 68.851 44.385999999999996 L 67.02 47.559 L 46.268 11.614 L 26.552 11.578000000000001 L 26.552 14.019000000000002 L 44.837 14.019000000000002 L 46.67 17.193 L 23.636 17.193 L 23.636 19.633000000000003 L 48.077 19.633000000000003 L 49.91 22.808000000000003 L 20.721 22.808000000000003 L 20.721 25.249000000000002 L 51.298 25.249000000000002 L 51.298 25.21 L 53.153 28.424 L 17.806 28.424 L 17.806 30.865 L 54.562 30.865 L 56.394 34.038 L 14.891 34.038 L 5 51.095 L 7.115 52.316 L 16.256999999999998 36.481 L 19.923 36.481 L 8.405 56.428 L 10.52 57.649 L 22.75 36.48 L 26.409 36.48 L 11.812 61.76 L 13.924999999999999 62.980999999999995 L 29.214999999999996 36.501999999999995 L 29.177999999999997 36.480999999999995 L 32.891999999999996 36.480999999999995 L 15.218 67.093 L 17.333 68.31400000000001 L 35.711 36.48 L 39.376 36.48 L 18.624 72.425 L 28.45 89.519 L 30.563 88.298 L 21.42 72.464 L 23.253 69.28999999999999 L 34.769 89.23499999999999 L 36.884 88.01399999999998 L 24.666 66.842 L 26.496000000000002 63.673 L 41.089 88.952 L 43.204 87.731 L 27.918 61.252 L 29.738 58.058 L 47.411 88.669 L 49.526 87.448 L 31.148 55.615 L 32.98 52.443000000000005 L 53.732 88.385 L 53.743 88.379 L 53.732 88.42200000000001 L 73.44800000000001 88.42200000000001 L 73.44800000000001 85.98100000000001 L 55.164 85.98100000000001 L 53.332 82.807 L 76.363 82.807 L 76.363 80.367 L 51.923 80.367 L 50.09 77.191 L 79.279 77.19200000000001 L 79.279 74.751 L 48.702 74.75 L 46.847 71.575 L 82.195 71.575 L 82.195 69.134 L 45.437 69.134 L 43.605 65.962 L 85.109 65.961 L 95 48.905 z M 42.196 63.521 L 34.39 50.001000000000005 L 42.196 36.480000000000004 L 57.805 36.480000000000004 L 65.611 50.001000000000005 L 57.806000000000004 63.521 L 42.196 63.521 z" stroke-linecap="round" />
</g>
		<g transform="matrix(3.33 0 0 3.33 0 80)" id="SvgjsG1058"  >
<path style="stroke: none; stroke-width: 1; stroke-dasharray: none; stroke-linecap: butt; stroke-dashoffset: 0; stroke-linejoin: miter; stroke-miterlimit: 4; fill: rgb(17,17,17); fill-rule: nonzero; opacity: 1;" vector-effect="non-scaling-stroke"  transform=" translate(-38.58, -12.56)" d="M 10.96 5.84 L 10.96 7.64 L 3.740000000000001 7.64 L 3.740000000000001 11.86 L 10.46 11.86 L 10.46 13.66 L 3.740000000000001 13.66 L 3.740000000000001 18.2 L 11.32 18.2 L 11.32 20 L 1.8200000000000003 20 L 1.8200000000000003 5.84 L 10.96 5.84 z M 23.08 4.880000000000001 L 23.079980469 20 L 21.279980468999998 20 L 21.279980468999998 18.64 L 21.239980469 18.64 C 20.893320469 19.14666 20.423320469 19.54 19.829980469 19.82 C 19.236640468999997 20.1 18.606680468999997 20.240000000000002 17.939980468999998 20.240000000000002 C 16.513280468999998 20.226660000000003 15.356580468999997 19.753320000000002 14.469980468999998 18.82 C 13.583380468999998 17.88668 13.133280468999997 16.7 13.119980468999998 15.26 C 13.119980468999998 13.8067 13.563320468999997 12.62 14.449980468999998 11.7 C 15.336640468999999 10.78 16.499980468999997 10.3067 17.939980468999998 10.28 C 18.593320469 10.28 19.219980469 10.42 19.819980468999997 10.7 C 20.419980468999995 10.979999999999999 20.893280468999997 11.373339999999999 21.239980468999995 11.879999999999999 L 21.279980468999995 11.879999999999999 L 21.279980468999995 4.879999999999999 L 23.079980468999995 4.879999999999999 z M 15.040000000000001 15.26 C 15.040000000000001 16.23334 15.32666 17.0233 15.9 17.63 C 16.47334 18.2367 17.2267 18.54666 18.16 18.56 C 19.10666 18.56 19.8633 18.25666 20.43 17.65 C 20.9967 17.043339999999997 21.28 16.246699999999997 21.28 15.259999999999998 C 21.28 14.286659999999998 21 13.496699999999997 20.44 12.889999999999997 C 19.880000000000003 12.283299999999997 19.113300000000002 11.973339999999997 18.14 11.959999999999997 C 17.20666 11.959999999999997 16.4567 12.266659999999998 15.89 12.879999999999997 C 15.3233 13.493339999999996 15.040000000000001 14.286699999999998 15.040000000000001 15.259999999999998 z M 27.6 10.52 L 27.6 16.2 C 27.6 16.946659999999998 27.796660000000003 17.526699999999998 28.19 17.939999999999998 C 28.58334 18.353299999999997 29.10668 18.56 29.76 18.56 C 30.6 18.56 31.25 18.28334 31.71 17.73 C 32.17 17.176660000000002 32.4 16.4267 32.4 15.48 L 32.4 10.52 L 34.199999999999996 10.52 L 34.199999999999996 20 L 32.4 20 L 32.4 18.54 L 32.36 18.54 C 32.10666 19.073339999999998 31.69332 19.49 31.12 19.79 C 30.546680000000002 20.09 29.92 20.24 29.240000000000002 20.24 C 28.186700000000002 20.24 27.35 19.913339999999998 26.730000000000004 19.259999999999998 C 26.110000000000007 18.606659999999998 25.800000000000004 17.7533 25.800000000000004 16.7 L 25.800000000000004 10.52 L 27.600000000000005 10.52 z M 46.82 5.84 L 46.82 7.64 L 42.26 7.64 L 42.26 20 L 40.339999999999996 20 L 40.339999999999996 7.640000000000001 L 35.779999999999994 7.640000000000001 L 35.779999999999994 5.840000000000001 L 46.81999999999999 5.840000000000001 z M 50.52000000000001 10.28 C 51.97330000000001 10.28 53.10340000000001 10.73664 53.91000000000001 11.649999999999999 C 54.716600000000014 12.563359999999998 55.126700000000014 13.819999999999999 55.14000000000001 15.419999999999998 L 55.14000000000001 15.919999999999998 L 47.540000000000006 15.919999999999998 C 47.540000000000006 16.69334 47.85000000000001 17.3433 48.470000000000006 17.869999999999997 C 49.09 18.396699999999996 49.846700000000006 18.666659999999997 50.74000000000001 18.679999999999996 C 51.72666000000001 18.679999999999996 52.593300000000006 18.206659999999996 53.34000000000001 17.259999999999998 L 54.70000000000001 18.299999999999997 C 53.68670000000001 19.593299999999996 52.28660000000001 20.24 50.50000000000001 20.24 C 49.04670000000001 20.24 47.87660000000001 19.77666 46.99000000000001 18.849999999999998 C 46.10340000000001 17.923339999999996 45.64670000000001 16.726599999999998 45.62000000000001 15.259999999999998 C 45.62000000000001 13.846699999999998 46.07666000000001 12.669999999999998 46.99000000000001 11.729999999999999 C 47.90334000000001 10.79 49.08000000000001 10.3067 50.52000000000001 10.28 z M 53.220000000000006 14.48 C 53.193340000000006 13.58666 52.940000000000005 12.9033 52.46000000000001 12.43 C 51.98000000000001 11.9567 51.32000000000001 11.719999999999999 50.48000000000001 11.719999999999999 C 49.92000000000001 11.719999999999999 49.41670000000001 11.856659999999998 48.97000000000001 12.129999999999999 C 48.52330000000001 12.40334 48.17334000000001 12.75668 47.920000000000016 13.19 C 47.66666000000002 13.62332 47.54000000000001 14.053339999999999 47.54000000000001 14.48 L 53.22000000000001 14.48 z M 61.80000000000001 10.3 C 63.30670000000001 10.3 64.52000000000001 10.8 65.44000000000001 11.8 L 64.08000000000001 13.040000000000001 C 63.42666000000001 12.333340000000002 62.640000000000015 11.98 61.72000000000001 11.98 C 60.84000000000001 11.98 60.126700000000014 12.29334 59.58000000000001 12.92 C 59.03330000000001 13.54666 58.76000000000001 14.3533 58.76000000000001 15.34 C 58.76000000000001 16.27334 59.04666000000001 17.04 59.62000000000001 17.64 C 60.19334000000001 18.240000000000002 60.92670000000001 18.54666 61.820000000000014 18.560000000000002 C 62.766660000000016 18.560000000000002 63.53330000000001 18.206660000000003 64.12000000000002 17.500000000000004 L 65.40000000000002 18.780000000000005 C 64.54666000000002 19.753340000000005 63.346600000000024 20.240000000000006 61.80000000000002 20.240000000000006 C 60.34670000000002 20.240000000000006 59.16340000000002 19.786660000000005 58.25000000000002 18.880000000000006 C 57.336600000000026 17.973340000000007 56.86670000000002 16.780000000000005 56.840000000000025 15.300000000000006 C 56.853340000000024 13.793300000000006 57.32334000000002 12.586600000000006 58.25000000000002 11.680000000000007 C 59.17666000000002 10.773400000000008 60.36000000000002 10.313300000000007 61.80000000000002 10.300000000000008 z M 68.74000000000001 4.880000000000001 L 68.74001953100002 11.98 L 68.78001953100002 11.98 C 69.03335953100002 11.44666 69.44335953100003 11.030000000000001 70.01001953100003 10.73 C 70.57667953100002 10.43 71.20671953100003 10.280000000000001 71.90001953100003 10.280000000000001 C 72.95331953100002 10.280000000000001 73.79001953100003 10.600000000000001 74.41001953100003 11.240000000000002 C 75.03001953100004 11.880000000000003 75.34001953100004 12.740000000000002 75.34001953100004 13.820000000000002 L 75.34001953100004 20 L 73.54001953100004 20 L 73.54001953100004 14.34 C 73.54001953100004 13.60666 73.35001953100004 13.0267 72.97001953100005 12.6 C 72.59001953100005 12.1733 72.06001953100005 11.959999999999999 71.38001953100004 11.959999999999999 C 70.54001953100004 11.959999999999999 69.89331953100005 12.233339999999998 69.44001953100005 12.78 C 68.98671953100005 13.32666 68.75333953100005 14.08 68.73999953100005 15.04 L 68.73999953100005 20 L 66.93999953100005 20 L 66.93999953100005 4.880000000000001 L 68.73999953100005 4.880000000000001 z" stroke-linecap="round" />
</g>
</g>
</g>
</svg>